<svg width="436" height="311" viewBox="0 0 436 311" fill="none" xmlns="http://www.w3.org/2000/svg">
<path fill-rule="evenodd" clip-rule="evenodd" d="M227.387 196.909C227.8 196.827 228.08 196.772 228.348 196.719C228.478 196.889 228.645 197.027 228.699 197.2C228.809 197.552 229.021 198.002 228.895 198.27C228.681 198.727 228.7 199.138 228.762 199.584C229.092 201.977 229.403 204.372 229.766 206.76C229.922 207.782 230.188 208.787 230.413 209.837C230.869 209.778 231.278 209.743 231.68 209.671C233.391 209.362 235.057 209.72 236.71 210.06C238.55 210.439 240.284 210.064 241.992 209.471C245.472 208.262 249.013 207.91 252.614 208.72C253.917 209.013 255.188 209.482 256.436 209.971C257.971 210.572 259.579 210.638 261.177 210.806C262.453 210.94 263.733 211.036 265.002 211.212C265.233 211.244 265.578 211.56 265.6 211.772C265.639 212.167 265.355 212.462 264.916 212.513C263.786 212.644 262.66 212.837 261.526 212.89C260.001 212.963 258.461 213.033 256.945 212.901C256.025 212.82 255.128 212.384 254.241 212.052C251.356 210.975 248.419 210.689 245.42 211.453C244.003 211.813 242.615 212.291 241.195 212.637C239.57 213.034 237.958 212.845 236.356 212.392C234.889 211.978 233.406 211.617 231.923 211.259C231.569 211.174 231.19 211.195 230.661 211.156C231.304 213.337 231.916 215.412 232.535 217.514C232.782 217.462 232.905 217.454 233.015 217.411C234.104 216.991 235.183 217.068 236.302 217.334C236.778 217.447 237.424 217.408 237.821 217.16C238.61 216.666 239.414 216.464 240.297 216.577C242.542 216.862 244.783 217.182 247.235 217.517C246.889 217.645 246.668 217.799 246.451 217.793C245.438 217.766 244.426 217.646 243.415 217.653C242.245 217.661 241.062 217.679 239.914 217.87C239.379 217.959 238.829 218.386 238.437 218.805C238.026 219.245 237.591 219.465 237.036 219.454C236.189 219.437 235.343 219.342 234.497 219.342C234.155 219.343 233.814 219.506 233.468 219.597C233.857 220.731 234.206 221.748 234.557 222.776C235.701 222.656 236.843 222.489 237.992 222.429C239.355 222.357 240.723 222.346 242.088 222.371C242.952 222.386 243.438 222.851 243.514 223.569C243.585 224.244 243.142 224.752 242.333 225.027C240.538 225.638 238.698 225.512 236.861 225.403C235.016 225.294 233.179 225.255 231.37 225.73C231.173 225.782 230.981 225.85 230.754 225.92C230.799 226.045 230.841 226.135 230.864 226.23C231.056 227.023 230.756 227.541 229.96 227.574C228.847 227.622 227.726 227.614 226.614 227.539C225.191 227.443 223.776 227.24 222.354 227.114C220.862 226.982 219.684 227.704 218.499 228.512C217.88 228.934 217.081 229.087 216.363 229.361C215.448 228.702 214.338 228.936 213.328 228.702C212.287 228.461 211.5 227.881 210.743 227.198C210.452 226.935 210.178 226.65 209.882 226.393C209.465 226.032 209.09 226.28 208.685 226.469C207.696 226.929 206.706 227.394 205.684 227.768C205.344 227.892 204.906 227.738 204.513 227.716C204.329 227.706 204.146 227.709 203.962 227.701C202.29 227.623 200.6 227.668 198.949 227.432C197.029 227.158 195.21 226.514 194.119 224.848C192.873 225.629 191.635 226.24 190.144 226.091C190.026 226.08 189.886 226.036 189.804 225.956C189.567 225.725 189.354 225.467 189.132 225.221C189.413 225.148 189.693 225.063 189.977 225.009C190.18 224.971 190.392 224.99 190.596 224.957C191.773 224.771 191.824 224.558 191.995 223.388C192.237 221.726 192.637 220.085 193.033 218.451C193.677 215.793 194.373 213.147 195.054 210.468C194.477 210.4 194.069 210.352 193.661 210.304C192.323 210.15 191.159 210.612 190.015 211.262C188.447 212.152 186.713 212.308 184.963 212.13C184.478 212.081 184.035 211.698 183.553 211.527C182.916 211.303 182.27 211.039 181.609 210.968C180.193 210.815 178.761 210.677 177.34 210.711C175.44 210.758 173.535 210.889 171.653 211.14C169.754 211.392 167.879 211.827 165.997 212.199C164.273 212.54 162.681 212.092 161.108 211.447C160.573 211.228 160.007 211.089 159.301 210.864C160.402 210.665 161.309 210.919 162.151 211.233C164.178 211.989 166.072 211.422 167.949 210.761C169.521 210.208 171.01 209.388 172.605 208.931C174.618 208.355 176.655 207.794 178.816 208.006C180.106 208.132 181.426 207.949 182.717 208.07C183.403 208.135 184.134 208.438 184.708 208.835C186.04 209.757 187.35 210.059 188.888 209.359C190.162 208.779 191.492 208.258 192.932 208.325C193.665 208.36 194.392 208.533 195.232 208.661C195.334 208.012 195.489 207.271 195.564 206.521C195.878 203.368 196.28 200.218 196.438 197.056C196.635 193.137 196.653 189.208 196.678 185.283C196.684 184.359 196.409 183.433 196.259 182.509C196.21 182.205 196.13 181.955 196.466 181.689C196.68 181.52 196.712 181.098 196.792 180.78C197.081 179.643 196.56 178.286 195.638 177.772C195.482 177.685 195.288 177.599 195.121 177.615C194.555 177.67 194.43 177.216 194.312 176.863C194.146 176.361 194.119 175.814 193.996 175.294C193.606 173.654 193.888 172.11 194.614 170.624C194.905 170.031 195.195 169.438 195.478 168.858C194.539 168.217 193.608 167.642 192.741 166.981C189.777 164.721 188.429 161.664 188.656 157.96C188.754 156.347 189.11 154.747 189.414 153.154C189.685 151.734 189.542 150.332 189.403 148.922C189.389 148.778 189.321 148.592 189.384 148.493C190.123 147.328 189.649 146.053 189.718 144.83C189.743 144.4 189.564 143.96 189.58 143.528C189.631 142.169 188.537 141.583 187.788 140.784C186.598 139.516 185.603 138.108 184.846 136.556C183.516 133.832 182.274 131.064 181.002 128.312C180.795 127.865 180.526 127.558 180.038 127.345C179.133 126.952 178.258 126.486 177.646 125.627C177.234 125.05 177.061 124.433 177.088 123.759C177.223 120.412 176.408 117.262 175.028 114.268C174.39 112.885 173.476 111.632 172.698 110.314C172.28 109.606 172.166 108.852 172.595 108.117C172.892 107.609 172.804 107.149 172.671 106.624C172.309 105.197 171.999 103.755 171.682 102.316C171.644 102.142 171.638 101.927 171.704 101.767C172.525 99.7997 174.825 97.8619 177.39 98.3807C179.139 98.7344 180.556 100.697 180.467 102.766C180.428 103.684 180.702 104.444 181.255 105.05C182.878 106.829 182.694 108.801 181.99 110.844C181.85 111.251 181.824 111.539 182.066 111.929C183.25 113.839 184.528 115.659 186.127 117.256C186.632 117.76 187.006 118.483 187.23 119.175C188.001 121.553 189.647 123.257 191.379 124.904C192.08 125.569 192.838 126.173 193.57 126.805C193.629 126.778 193.689 126.752 193.748 126.726C193.654 125.812 193.618 124.886 193.455 123.985C193.106 122.062 192.706 120.147 192.3 118.235C192.003 116.84 191.099 115.79 190.238 114.727C188.484 112.56 188.53 110.835 189.524 108.452C190.098 107.075 190.808 105.732 191.178 104.301C191.544 102.882 191.51 101.362 191.743 99.9016C192.001 98.283 191.838 96.7058 191.538 95.1186C191.323 93.9791 191.576 92.9264 192.46 92.1584C193.326 91.4056 193.761 90.4213 194.239 89.4255C194.874 88.1001 195.543 86.7846 196.296 85.5255C196.868 84.5694 197.711 83.8239 198.775 83.4483C199.955 83.0314 200.999 83.4373 201.957 84.1677C203.243 85.1483 203.765 86.4607 203.726 88.0609C203.662 90.6841 203.298 93.253 202.342 95.7043C202.073 96.3944 201.663 97.0354 201.268 97.6676C201.146 97.8635 200.859 97.9549 200.732 98.038C200.597 99.1132 200.54 100.189 200.308 101.226C200.096 102.17 199.724 103.083 199.368 103.987C198.555 106.055 199.018 108.095 199.466 110.134C199.518 110.373 199.781 110.559 199.917 110.788C200.751 112.195 201.617 113.586 202.397 115.024C203.325 116.733 204.178 118.485 205.063 120.218C205.147 120.209 205.231 120.202 205.314 120.193C205.506 119.148 205.778 118.111 205.87 117.057C205.997 115.608 206.073 114.143 206.016 112.692C205.919 110.207 206.39 107.833 207.217 105.526C207.958 103.461 208.49 101.379 208.178 99.168C207.962 97.6436 208.706 96.4837 209.616 95.454C210.53 94.4222 211.63 93.5607 212.579 92.5576C213.082 92.0262 213.489 91.3831 213.85 90.7395C215.095 88.5196 216.253 86.2475 217.541 84.0538C218.326 82.7153 219.249 81.4504 220.561 80.5466C222.001 79.5566 222.978 80.0571 223.806 81.0612C225.261 82.8255 225.41 84.9377 225.225 87.0986C225.026 89.425 223.985 91.4599 222.767 93.3632C221.214 95.7884 219.483 98.097 217.857 100.475C217.688 100.723 217.727 101.108 217.632 101.418C217.372 102.268 217.199 103.167 216.8 103.947C215.904 105.692 215.601 107.567 215.368 109.472C215.352 109.602 215.374 109.783 215.453 109.872C217.205 111.839 217.544 114.293 217.825 116.773C217.96 117.968 218.13 119.158 218.428 120.404C218.72 119.789 219.052 119.189 219.296 118.555C219.781 117.294 220.185 116.002 220.683 114.747C221.099 113.697 221.647 112.699 222.05 111.644C222.48 110.521 222.795 109.354 223.181 108.213C223.582 107.028 224.059 105.876 224.891 104.918C225.723 103.959 226.736 103.379 228.04 103.475C228.726 103.526 229.011 102.943 229.365 102.573C231.143 100.716 232.884 98.8232 234.59 96.9006C235.127 96.2951 235.85 96.0736 236.49 95.6823C238.848 94.2435 241.365 93.3115 244.163 93.4504C245.965 93.5398 247.381 94.3454 248.127 96.0736C248.51 96.9592 248.296 97.828 247.833 98.6482C247.139 99.8765 246.328 101.055 245.059 101.667C244.285 102.041 243.6 102.487 242.938 103.001C241.566 104.066 240.016 104.783 238.418 105.42C238.118 105.539 237.807 105.769 237.628 106.035C236.315 107.979 234.834 109.753 232.852 111.061C233.576 113.01 232.584 114.579 231.702 116.104C230.139 118.804 228.929 121.619 228.454 124.722C228.392 125.123 228.488 125.548 228.514 125.963C228.637 127.983 228.663 130.016 228.908 132.022C229.273 135.01 230.168 137.826 232.089 140.225C232.39 140.601 232.664 140.756 233.117 140.536C234.471 139.878 235.869 139.303 237.171 138.556C237.764 138.217 238.198 137.572 238.657 137.025C239.885 135.562 241.088 134.08 242.299 132.603C243.089 131.638 243.841 130.655 244.122 129.389C244.423 128.031 245.427 127.339 246.591 126.799C247.941 126.171 249.38 125.881 250.834 125.709C252.434 125.518 254.045 125.412 255.654 125.313C256.143 125.283 256.668 125.32 257.126 125.476C257.584 125.633 258.003 125.946 258.398 126.246C259.134 126.805 259.9 127.343 260.541 128.002C261.319 128.799 261.306 129.854 260.706 130.807C259.633 132.512 258.086 133.598 256.259 134.325C254.591 134.989 252.918 135.642 251.255 136.319C251.094 136.384 250.926 136.558 250.862 136.722C249.834 139.342 248.137 141.444 246.007 143.232C244.913 144.151 243.836 145.096 242.809 146.09C241.778 147.088 240.994 148.265 240.401 149.599C239.814 150.918 239.064 152.164 238.374 153.437C238.302 153.569 238.156 153.756 238.046 153.756C237.069 153.75 236.849 154.575 236.45 155.197C235.479 156.709 235.126 158.406 234.989 160.171C234.949 160.688 234.804 161.198 234.774 161.715C234.742 162.265 234.86 162.828 234.787 163.368C234.686 164.113 234.552 164.877 234.28 165.572C233.686 167.091 232.78 168.429 231.383 169.296C230.409 169.9 229.323 170.321 228.227 170.852C228.16 172.459 228.73 174.03 229.21 175.618C229.746 177.393 230.348 179.165 230.003 181.064C229.896 181.651 229.754 182.264 229.476 182.782C228.072 185.402 228.046 188.22 228.192 191.075C228.239 191.993 228.27 192.913 228.273 193.831C228.273 194.013 228.146 194.317 228.015 194.358C227.564 194.496 227.472 194.808 227.458 195.206C227.441 195.74 227.415 196.278 227.387 196.909ZM218.262 171.996C218.241 171.905 218.22 171.815 218.199 171.724C218.312 171.649 218.414 171.545 218.538 171.503C219.747 171.093 220.947 170.64 222.177 170.303C223.884 169.837 225.634 169.525 227.332 169.03C229.94 168.269 231.895 166.725 232.704 163.991C232.851 163.493 233.254 162.93 232.598 162.462C232.548 162.427 232.558 162.307 232.539 162.227C232.302 161.217 232.178 160.159 231.793 159.209C231.436 158.328 231.36 157.444 231.263 156.537C231.231 156.231 231.223 155.868 231.056 155.64C230.525 154.916 230.571 154.114 230.639 153.305C230.696 152.634 231.052 152.123 231.646 151.827C232.236 151.533 232.855 151.301 233.456 151.026C234.596 150.505 235.746 150.659 236.868 151.035C237.644 151.294 238.08 151.084 238.465 150.325C239.044 149.185 239.572 147.96 240.401 147.023C241.644 145.616 243.129 144.426 244.512 143.146C245.917 141.847 247.261 140.495 248.309 138.768C247.655 138.748 247.68 138.295 247.825 137.936C248.071 137.329 248.339 136.695 248.747 136.198C249.835 134.874 251.385 134.249 252.905 133.59C254.25 133.009 255.611 132.456 256.914 131.788C257.896 131.285 258.752 130.572 259.111 129.442C259.164 129.272 259.17 128.981 259.068 128.881C258.004 127.842 256.987 126.73 255.268 126.925C254.367 127.028 253.448 126.955 252.538 126.993C251.486 127.037 250.432 127.079 249.385 127.189C247.8 127.355 246.442 128 245.497 129.342C245.056 129.967 244.737 130.681 244.276 131.289C242.834 133.187 241.352 135.053 239.868 136.952C240.637 137.563 239.776 138.014 239.56 138.67C239.851 138.538 240.024 138.433 240.212 138.38C240.449 138.313 240.698 138.287 240.942 138.243C240.843 138.468 240.804 138.776 240.634 138.901C240.056 139.328 239.466 139.772 238.816 140.06C237.459 140.66 236.034 141.106 234.686 141.725C232.992 142.503 231.403 143.483 230.076 144.822C229.42 145.484 228.851 146.232 228.242 146.941C228.297 146.431 228.444 145.93 228.604 145.433C228.804 144.813 229.131 144.281 229.238 143.575C229.486 141.936 229.364 140.367 228.941 138.812C228.565 137.431 228.177 136.035 227.6 134.733C226.971 133.318 226.849 131.818 226.563 130.344C226.437 129.696 226.435 129.014 226.452 128.35C226.487 127.04 226.582 125.732 226.639 124.422C226.666 123.794 226.476 123.112 227.2 122.704C227.31 122.642 227.337 122.409 227.379 122.25C228.021 119.764 229.213 117.533 230.499 115.343C231.134 114.262 231.551 113.113 231.491 111.855C230.768 112.06 230.082 112.281 229.381 112.437C229.202 112.476 228.978 112.31 228.774 112.238C228.908 112.081 229.013 111.833 229.179 111.78C230.945 111.221 232.384 110.161 233.622 108.817C234.226 108.161 234.741 107.422 235.296 106.72C235.252 106.666 235.208 106.613 235.164 106.559C234.762 106.7 234.357 106.829 233.961 106.982C233.663 107.098 233.374 107.167 233.253 106.778C233.147 106.437 233.178 106.128 233.599 105.974C234.587 105.613 235.558 105.201 236.552 104.857C238.656 104.132 240.654 103.222 242.338 101.717C242.879 101.233 243.363 100.64 243.983 100.304C245.072 99.7124 245.96 98.9178 246.76 98.003C247.214 97.4837 247.254 96.7314 246.859 96.2095C246.338 95.5204 245.692 94.9483 244.847 94.7127C242.481 94.0528 240.218 94.522 238.164 95.7126C236.032 96.9487 234.449 98.8624 232.84 100.712C231.098 102.716 229.142 104.446 226.719 105.596C226.298 105.795 225.905 106.165 225.628 106.55C224.574 108.02 224.272 109.79 223.808 111.491C223.355 113.155 222.991 114.85 221.844 116.227C221.604 116.516 221.437 116.89 221.319 117.252C220.717 119.091 220.134 120.932 218.965 122.516C218.829 122.7 218.772 123.031 218.829 123.256C219.035 124.081 219.323 124.884 219.543 125.706C219.637 126.057 219.816 126.162 220.156 126.167C220.587 126.174 221.026 126.201 221.444 126.298C221.62 126.339 221.75 126.579 221.901 126.728C221.742 126.873 221.6 127.114 221.423 127.143C220.959 127.22 220.464 127.291 220.01 127.208C218.735 126.976 217.474 126.668 216.209 126.382C212.428 125.525 208.736 125.921 205.102 127.173C204.386 127.419 203.66 127.63 202.938 127.857C202.915 127.795 202.891 127.732 202.867 127.67C204.329 127.006 205.791 126.343 207.2 125.705C206.507 124.869 205.76 124.089 205.15 123.211C203.386 120.671 202.138 117.862 201.047 114.972C200.689 114.026 200.222 113.123 199.89 112.385C199.375 112.293 198.971 112.326 198.711 112.146C198.447 111.964 198.298 111.587 198.145 111.271C197.138 109.192 197.044 106.99 197.561 104.802C197.843 103.607 198.485 102.498 198.97 101.352C199.46 100.195 199.942 99.04 199.534 97.7392C199.409 97.3395 199.623 97.2293 199.981 97.1953C200.147 97.1791 200.385 97.0751 200.445 96.9435C200.878 96.0026 201.364 95.0716 201.661 94.0847C202.243 92.1537 202.28 90.1481 202.337 88.1393C202.36 87.318 202.192 86.712 201.673 86.1221C200.466 84.7486 199.237 84.2941 197.839 86.0526C196.583 87.632 195.67 89.3916 195.022 91.2922C194.816 91.8941 194.556 92.392 193.96 92.6683C193.817 92.7347 193.704 92.871 193.582 92.9808C192.576 93.8841 192.822 95.3537 193.34 96.5825C193.518 97.003 193.546 97.5386 193.484 97.9999C193.317 99.2532 192.972 100.488 192.868 101.744C192.667 104.176 191.943 106.397 190.776 108.535C189.632 110.632 189.606 112.408 191.385 114.105C192.554 115.22 193.323 116.532 193.545 118.074C193.944 120.856 194.223 123.659 194.438 126.463C194.497 127.243 194.741 127.652 195.398 127.976C196.429 128.487 197.424 129.069 198.493 129.653C196.853 130.376 195.577 131.74 193.748 131.969C194.081 131.007 195.032 130.785 195.689 130.248C194.931 129.827 194.186 129.469 193.499 129.019C191.514 127.721 190.009 125.931 188.583 124.06C187.569 122.73 186.777 121.302 186.265 119.692C186.034 118.966 185.546 118.315 185.131 117.659C184.843 117.205 184.454 116.818 184.154 116.37C183.303 115.101 182.475 113.816 181.711 112.65C181.427 112.727 181.143 112.901 180.961 112.826C180.773 112.749 180.551 112.414 180.573 112.218C180.66 111.418 180.816 110.624 180.983 109.836C181.312 108.277 181.213 106.864 179.889 105.741C179.268 105.214 178.73 104.605 178.983 103.642C179.082 103.267 179.056 102.853 179.054 102.457C179.049 101.453 178.59 100.722 177.732 100.215C176.298 99.3687 174.721 99.8765 173.586 100.763C173.009 101.213 172.715 101.721 172.924 102.487C173.29 103.829 173.621 105.182 173.948 106.534C174.073 107.05 174.326 107.589 173.927 108.091C173.561 108.554 173.615 108.97 173.905 109.461C174.495 110.461 175.092 111.464 175.569 112.52C176.122 113.747 176.597 115.014 177.019 116.294C177.761 118.539 178.64 120.759 178.315 123.224C178.206 124.042 178.478 124.804 179.021 125.483C179.8 126.459 180.855 126.995 181.92 127.547C182.306 127.748 182.824 127.958 182.977 128.303C183.827 130.219 184.683 132.144 185.349 134.129C186.574 137.784 188.605 140.823 191.644 143.171C191.775 143.273 191.865 143.428 191.974 143.559C191.94 143.623 191.904 143.686 191.87 143.75C191.543 143.631 191.216 143.513 190.877 143.39C190.954 144.063 191.053 144.701 191.096 145.343C191.164 146.355 191.668 146.935 192.692 146.982C193.28 147.009 193.883 146.947 194.463 146.836C195.701 146.601 196.618 147.144 197.175 148.139C197.644 148.977 198.051 149.907 197.355 150.939C196.727 151.868 196.203 152.809 194.927 152.933C194.653 152.959 194.301 153.239 194.171 153.498C193.801 154.234 193.575 155.044 193.195 155.774C192.999 156.152 192.65 156.524 192.278 156.718C191.468 157.14 190.945 157.851 190.906 158.645C190.853 159.702 191.054 160.802 191.318 161.839C191.536 162.693 191.953 163.512 192.376 164.294C193.039 165.517 193.849 166.577 195.472 166.475C195.748 166.457 196.04 166.672 196.321 166.789C196.655 166.928 196.974 167.129 197.32 167.207C197.696 167.293 198.103 167.232 198.484 167.301C199.009 167.396 199.517 167.616 200.044 167.673C201.971 167.88 203.855 168.156 205.398 169.515C206.131 170.16 206.927 170.731 207.695 171.336C207.666 171.387 207.638 171.439 207.609 171.491C206.789 171.168 205.98 170.814 205.146 170.536C204.785 170.416 204.372 170.429 203.982 170.426C203.7 170.423 203.413 170.541 203.133 170.523C201.598 170.424 200.067 170.248 198.531 170.207C197.845 170.188 197.209 170.567 196.815 171.168C196.188 172.125 196.066 173.222 196.057 174.344C196.054 174.718 196.223 174.867 196.536 174.802C197.217 174.66 197.884 174.445 198.567 174.312C198.865 174.254 199.226 174.233 199.489 174.351C199.857 174.515 200.176 174.808 200.487 175.079C201.002 175.528 201.523 175.977 201.986 176.479C202.258 176.774 202.563 177.156 202.602 177.526C202.652 177.994 202.214 178.26 201.785 178.429C201.502 178.541 201.223 178.666 200.955 178.811C200.531 179.042 200.119 179.296 199.556 179.625C199.65 180.316 199.033 180.855 198.468 181.438C198.347 181.563 198.301 181.831 198.326 182.019C198.466 183.111 198.773 184.198 198.778 185.287C198.798 190.173 198.785 195.06 198.687 199.945C198.612 203.726 198.022 207.461 197.374 211.179C197.064 212.959 196.68 214.727 196.308 216.496C195.893 218.468 195.463 220.439 195.021 222.406C194.867 223.087 195.409 224.078 196.11 224.311C196.334 223.965 196.611 223.643 196.774 223.269C197.677 221.198 198.176 219.021 198.481 216.782C198.677 215.345 199.022 213.929 199.325 212.509C199.406 212.129 199.663 211.778 199.703 211.398C199.889 209.593 200.082 207.785 200.17 205.973C200.277 203.783 200.267 201.587 200.333 199.394C200.366 198.342 200.459 197.293 200.524 196.242C200.724 197.749 200.83 199.246 200.933 200.742C201.026 202.096 200.925 203.496 201.246 204.792C201.974 207.745 201.715 210.715 201.734 213.687C201.74 214.532 201.887 215.378 201.991 216.221C202.009 216.368 202.136 216.502 202.213 216.643C202.273 216.629 202.332 216.615 202.392 216.601C202.674 213.736 202.957 210.87 203.239 208.003C203.387 208.469 203.446 208.947 203.46 209.426C203.524 211.679 203.574 213.934 203.634 216.189C203.653 216.876 203.692 217.563 203.725 218.331C205.365 216.779 204.988 214.742 205.377 212.933C205.495 213.031 205.526 213.106 205.529 213.182C205.605 214.83 205.72 216.478 205.741 218.128C205.765 219.997 206.217 221.743 207.026 223.407C207.112 223.584 207.276 223.723 207.439 223.922C209.525 222.704 209.674 220.542 210.173 218.42C210.275 218.683 210.356 218.809 210.37 218.942C210.45 219.73 210.512 220.519 210.589 221.306C210.606 221.484 210.629 221.671 210.698 221.832C210.849 222.185 211.062 222.512 211.192 222.87C211.424 223.512 211.539 224.208 211.836 224.815C212.697 226.579 213.185 226.844 214.989 226.568C215.893 226.43 216.75 226.519 217.607 226.83C217.804 226.902 218.095 226.897 218.275 226.8C219.45 226.165 220.605 225.495 221.788 224.825C221.701 220.819 221.611 216.699 221.519 212.504C221.613 212.734 221.705 212.897 221.745 213.072C222.064 214.493 222.393 215.912 222.675 217.34C222.792 217.93 222.948 218.463 223.444 218.799C224.313 218.317 224.613 217.652 224.331 216.645C224.07 215.709 223.984 214.723 223.822 213.759C223.868 213.745 223.914 213.729 223.96 213.714C224.41 214.811 224.86 215.909 225.309 217.006C225.383 217.003 225.457 216.999 225.531 216.995C225.603 216.442 225.669 215.889 225.75 215.337C225.767 215.219 225.809 215.038 225.887 215.006C226.525 214.746 226.284 214.226 226.242 213.791C226.021 211.487 225.779 209.185 225.551 206.882C225.529 206.659 225.548 206.431 225.548 206.206C225.628 206.194 225.71 206.181 225.79 206.169C227.143 212.227 228.495 218.286 229.851 224.356C230.733 223.95 231.731 223.491 232.73 223.031C231.175 219.508 230.358 215.788 229.375 212.119C228.389 208.44 227.791 204.692 227.369 200.888C226.706 201.227 226.091 201.512 225.506 201.848C224.715 202.3 224.395 202.177 224.171 201.256C224.029 200.671 223.926 200.076 223.767 199.496C223.717 199.314 223.481 199.007 223.437 199.025C222.872 199.254 222.913 198.685 222.654 198.405C222.412 199.281 222.235 200.145 221.36 200.589C221.331 200.499 221.305 200.458 221.309 200.422C221.32 200.341 221.336 200.257 221.368 200.182C221.976 198.805 221.946 197.411 221.567 195.974C221.347 195.141 221.346 194.274 221.752 193.466C221.912 193.148 222.131 192.993 222.5 193.216C222.809 193.402 223.147 193.536 223.472 193.694C223.497 193.644 223.522 193.595 223.547 193.545C223.678 193.775 223.808 194.005 223.982 194.31C224.128 194.093 224.25 193.986 224.279 193.858C224.495 192.891 224.938 191.95 225.687 191.417C226.877 190.572 226.626 189.453 226.644 188.337C226.649 188.045 226.606 187.743 226.663 187.461C226.919 186.204 227.186 184.949 227.486 183.703C227.624 183.126 228.019 182.564 227.998 182.007C227.945 180.615 227.769 179.222 227.55 177.844C227.39 176.844 227.105 175.861 226.836 174.882C226.456 173.501 225.77 172.379 224.353 171.82C222.952 171.266 221.568 171.377 220.154 171.706C219.534 171.85 218.893 171.902 218.262 171.996ZM217.19 98.4654C217.244 98.422 217.303 98.3927 217.336 98.3457C218.575 96.6055 219.857 94.8934 221.036 93.1124C222.313 91.1856 223.454 89.1643 223.73 86.807C223.929 85.1133 223.542 83.4854 222.78 81.9786C222.413 81.2545 221.927 81.2216 221.257 81.6746C220.257 82.3516 219.539 83.2811 218.919 84.2983C217.646 86.3891 216.382 88.4846 215.115 90.5786C214.659 91.3335 214.263 92.1344 213.737 92.8355C213.332 93.3747 212.769 93.7937 212.273 94.2618C210.833 95.6222 209.627 97.1316 209.763 99.2647C209.91 101.557 209.314 103.678 208.519 105.772C207.853 107.526 207.425 109.309 207.748 111.208C207.87 111.926 207.964 112.653 208.005 113.38C208.165 116.206 207.66 118.942 206.77 121.608C206.598 122.123 206.759 122.443 207.083 122.753C207.591 123.239 208.192 123.647 208.617 124.196C209.173 124.912 209.765 124.924 210.564 124.724C212.218 124.309 213.906 124.103 215.588 124.605C216.385 124.844 217.164 125.148 217.946 125.42C217.946 125.419 217.967 125.374 217.955 125.341C216.942 122.58 216.47 119.716 216.34 116.784C216.254 114.868 216.061 112.971 215.222 111.298C214.995 111.44 214.752 111.705 214.587 111.663C214.4 111.615 214.193 111.307 214.151 111.083C214.032 110.453 213.917 109.806 213.941 109.17C214.013 107.225 214.685 105.433 215.41 103.654C215.921 102.401 216.447 101.106 216.089 99.7229C215.852 98.8076 215.391 97.9528 215.094 97.0506C215.008 96.7883 215.032 96.3422 215.198 96.176C215.492 95.8824 215.81 96.128 215.999 96.4425C216.395 97.0981 216.777 97.7627 217.19 98.4654ZM194.268 151.908C195.099 151.845 195.566 151.266 196.072 150.688C195.194 150.139 194.915 148.872 193.698 148.782C194.658 149.686 194.133 150.844 194.268 151.908ZM232.027 154.961C232.812 153.721 234.225 153.7 235.49 153.179C234.782 152.958 232.784 153.196 232.31 153.506C231.672 153.923 231.579 154.304 232.027 154.961ZM199.889 177.561C199.904 177.493 199.92 177.425 199.935 177.357C198.512 176.513 197.342 176.483 196.814 177.361C197.316 177.215 197.748 177.066 198.192 176.974C198.35 176.941 198.542 177.026 198.708 177.088C199.105 177.236 199.496 177.402 199.889 177.561ZM224.249 198.141C224.249 197.558 224.249 197.124 224.249 196.691C224.17 196.644 224.091 196.597 224.012 196.55C223.826 196.838 223.639 197.126 223.426 197.454C223.639 197.632 223.885 197.837 224.249 198.141Z" fill="#35477D"/>
<path fill-rule="evenodd" clip-rule="evenodd" d="M233.161 127.154C232.479 127.169 231.926 126.806 231.837 126.187C231.741 125.516 231.778 124.826 231.765 124.145C231.763 124.046 231.851 123.932 231.826 123.848C231.703 123.439 231.752 123.02 232.163 122.922C232.417 122.862 232.746 123.15 233.048 123.263C233.533 123.444 234.016 123.715 234.517 123.76C235.415 123.843 235.638 124.146 235.227 124.954C235.011 125.378 234.793 125.803 234.6 126.237C234.304 126.903 233.697 127.027 233.161 127.154ZM232.581 124.663C232.729 125.214 232.246 125.87 232.973 126.181C233.342 126.339 233.759 125.749 233.833 125.026C233.447 124.915 233.058 124.801 232.581 124.663Z" fill="black"/>
<path fill-rule="evenodd" clip-rule="evenodd" d="M240.652 114.033C240.656 113.95 240.659 113.867 240.664 113.783C240.712 112.841 240.982 112.674 241.85 113.058C241.943 113.099 242.019 113.176 242.111 113.222C242.894 113.615 242.963 113.79 242.619 114.517C242.349 115.088 241.39 115.568 240.924 115.324C240.776 115.247 240.652 115.016 240.622 114.839C240.58 114.578 240.633 114.301 240.645 114.031C240.648 114.032 240.65 114.033 240.652 114.033Z" fill="black"/>
<path fill-rule="evenodd" clip-rule="evenodd" d="M226.7 95.7686C226.628 96.1411 226.754 96.6619 226.14 96.6969C225.681 96.7236 225.236 96.0679 225.309 95.3616C225.333 95.1312 225.619 94.8005 225.839 94.7462C226.259 94.6438 226.718 95.2425 226.7 95.7686Z" fill="black"/>
<path fill-rule="evenodd" clip-rule="evenodd" d="M217.19 98.4654C216.777 97.7627 216.395 97.0987 215.999 96.4436C215.809 96.1291 215.492 95.884 215.197 96.1771C215.031 96.3428 215.008 96.7894 215.094 97.0517C215.391 97.9545 215.851 98.8087 216.088 99.724C216.446 101.107 215.921 102.402 215.41 103.655C214.684 105.434 214.012 107.226 213.94 109.171C213.916 109.807 214.032 110.454 214.151 111.084C214.193 111.309 214.399 111.616 214.586 111.664C214.751 111.706 214.994 111.44 215.222 111.299C216.061 112.972 216.254 114.869 216.339 116.785C216.47 119.717 216.941 122.581 217.954 125.342C217.966 125.375 217.946 125.42 217.946 125.421C217.163 125.149 216.385 124.845 215.587 124.606C213.906 124.104 212.218 124.31 210.563 124.725C209.765 124.925 209.172 124.913 208.616 124.197C208.191 123.648 207.591 123.24 207.083 122.754C206.758 122.444 206.597 122.124 206.769 121.609C207.659 118.943 208.164 116.208 208.005 113.381C207.964 112.654 207.869 111.927 207.747 111.209C207.424 109.309 207.852 107.527 208.518 105.773C209.314 103.679 209.91 101.558 209.763 99.2658C209.626 97.1327 210.832 95.6233 212.273 94.2629C212.769 93.7948 213.332 93.3758 213.736 92.8366C214.262 92.135 214.659 91.3346 215.115 90.5797C216.381 88.4852 217.646 86.3897 218.918 84.2994C219.538 83.2822 220.257 82.3522 221.256 81.6757C221.927 81.2227 222.413 81.2556 222.779 81.9797C223.542 83.4865 223.928 85.1144 223.73 86.8082C223.454 89.166 222.312 91.1868 221.036 93.1135C219.857 94.894 218.574 96.6066 217.336 98.3468C217.303 98.3928 217.244 98.4221 217.19 98.4654ZM213.017 112.256C213.265 113.664 213.073 115.01 212.595 116.325C212.155 117.536 211.767 118.795 210.641 119.567C209.944 120.045 209.185 120.429 208.46 120.865C208.298 120.962 208.161 121.101 208.013 121.221C208.191 121.33 208.387 121.417 208.543 121.552C208.982 121.927 209.621 122.25 209.78 122.728C210.004 123.405 209.896 123.463 210.591 123.296C211.243 123.138 211.926 122.936 212.574 122.994C213.13 123.044 213.433 122.934 213.544 122.436C213.819 121.202 214.169 119.968 214.276 118.715C214.469 116.464 213.999 114.3 213.017 112.256ZM222.285 86.549C221.839 87.9016 221.026 89.003 220.112 90.0259C218.995 91.2766 217.988 92.6423 216.508 93.5278C216.29 93.6584 216.135 94.1276 216.174 94.4092C216.232 94.8277 216.677 94.9598 217.011 94.7853C217.643 94.4536 218.296 94.1004 218.813 93.6182C220.035 92.4793 220.976 91.1026 221.691 89.5912C222.141 88.6419 222.406 87.6263 222.285 86.549ZM214.066 98.1504C214.014 98.1541 213.964 98.1577 213.913 98.1609C213.913 98.2831 213.91 98.4059 213.913 98.5276C213.96 100.282 213.572 101.91 212.573 103.373C212.142 104.006 211.729 104.654 211.345 105.317C211.077 105.779 211.309 106.13 211.726 106.342C212.18 106.574 212.41 106.279 212.577 105.899C213.059 104.797 213.567 103.707 214.018 102.592C214.614 101.118 214.385 99.63 214.066 98.1504ZM208.697 107.702C208.687 107.753 208.677 107.804 208.666 107.854C208.889 107.994 209.103 108.152 209.336 108.27C210.309 108.762 211.256 109.368 212.414 109.221C212.618 109.196 212.801 109.002 212.994 108.886C212.8 108.751 212.623 108.545 212.409 108.495C211.371 108.251 210.323 108.049 209.278 107.831C209.085 107.791 208.891 107.746 208.697 107.702ZM216.486 90.5415C217.752 88.7961 219.258 87.2193 220.176 85.2293C218.967 87.0171 217.349 88.5108 216.486 90.5415ZM212.893 98.4581C213.428 98.4602 213.744 98.1415 213.732 97.6092C213.721 97.1222 213.247 96.7513 212.624 96.7774C212.186 96.7952 211.868 96.977 211.875 97.4921C211.882 97.9911 212.368 98.456 212.893 98.4581ZM210.183 118.764C210.625 118.753 211.013 118.345 210.987 117.919C210.956 117.407 210.528 117.11 209.861 117.132C209.455 117.146 209.112 117.256 209.09 117.738C209.065 118.295 209.599 118.78 210.183 118.764ZM209.345 111.642C208.775 113.056 208.963 115.534 209.684 115.746C209.574 114.403 209.466 113.099 209.345 111.642Z" fill="white"/>
<path fill-rule="evenodd" clip-rule="evenodd" d="M194.268 151.908C194.133 150.844 194.658 149.686 193.698 148.782C194.915 148.873 195.194 150.139 196.072 150.688C195.566 151.265 195.099 151.845 194.268 151.908Z" fill="white"/>
<path fill-rule="evenodd" clip-rule="evenodd" d="M232.027 154.961C231.579 154.303 231.672 153.923 232.31 153.506C232.785 153.196 234.781 152.958 235.49 153.179C234.225 153.7 232.812 153.721 232.027 154.961Z" fill="white"/>
<path fill-rule="evenodd" clip-rule="evenodd" d="M199.889 177.561C199.496 177.402 199.105 177.236 198.708 177.088C198.542 177.026 198.35 176.941 198.192 176.974C197.748 177.067 197.316 177.215 196.814 177.36C197.343 176.483 198.512 176.512 199.935 177.357C199.92 177.425 199.904 177.493 199.889 177.561Z" fill="white"/>
<path fill-rule="evenodd" clip-rule="evenodd" d="M224.249 198.141C223.885 197.837 223.639 197.632 223.426 197.455C223.639 197.126 223.825 196.838 224.012 196.551C224.091 196.598 224.17 196.644 224.249 196.691C224.249 197.124 224.249 197.558 224.249 198.141Z" fill="white"/>
<path fill-rule="evenodd" clip-rule="evenodd" d="M255.482 231.585C254.216 231.585 252.95 231.585 251.668 231.585C251.788 231.227 252.027 231.048 252.498 231.106C253.49 231.23 254.488 231.306 255.485 231.401C255.483 231.462 255.482 231.524 255.482 231.585Z" fill="white"/>
<path fill-rule="evenodd" clip-rule="evenodd" d="M232.582 124.663C233.059 124.801 233.448 124.914 233.833 125.026C233.759 125.749 233.342 126.339 232.973 126.181C232.245 125.87 232.729 125.215 232.582 124.663Z" fill="white"/>
<path fill-rule="evenodd" clip-rule="evenodd" d="M214.137 134.544C214.11 134.773 214.141 134.935 214.074 135.015C213.44 135.788 213.325 136.733 213.094 137.66C212.993 138.068 212.591 138.509 212.209 138.716C210.969 139.391 210.472 140.404 210.514 141.783C210.544 142.736 210.365 143.012 209.815 142.962C209.082 142.895 209.159 142.309 209.135 141.789C209.092 140.886 208.608 140.202 208.067 139.523C207.802 139.191 207.66 138.744 207.524 138.328C207.364 137.835 207.412 137.315 206.665 137.143C206.231 137.044 205.891 136.466 205.554 136.066C205.492 135.992 205.591 135.674 205.707 135.574C206.186 135.155 206.696 134.772 207.201 134.384C207.562 134.107 207.951 133.866 208.288 133.564C208.406 133.459 208.403 133.218 208.457 133.04C208.501 132.898 208.51 132.688 208.606 132.633C208.714 132.571 208.906 132.629 209.053 132.668C209.538 132.797 210.019 133.057 210.503 133.056C211.778 133.053 212.891 133.455 213.908 134.183C214.035 134.275 214.09 134.468 214.137 134.544ZM206.959 136.105C207.724 134.833 209.084 134.652 210.299 134.066C209.794 133.914 209.336 133.777 209.061 133.694C208.12 134.412 207.296 135.041 206.443 135.69C206.615 135.827 206.74 135.928 206.959 136.105Z" fill="black"/>
<path fill-rule="evenodd" clip-rule="evenodd" d="M197.42 162.592C197.399 162.157 197.38 161.774 197.353 161.215C198.253 161.901 198.937 162.509 199.701 162.984C200.694 163.603 201.736 164.147 202.786 164.661C203.293 164.909 203.844 164.948 204.451 164.899C205.094 164.848 205.789 165.111 206.423 165.342C208.453 166.082 210.288 167.184 211.994 168.512C212.075 168.576 212.156 168.642 212.174 168.8C211.829 168.606 211.482 168.415 211.14 168.218C209.523 167.287 207.722 167.059 205.925 166.799C203.394 166.434 200.855 166.107 198.341 165.643C196.708 165.342 195.169 164.722 194.077 163.337C193.436 162.523 192.878 161.671 192.975 160.373C193.843 162.554 195.255 163.412 197.42 162.592Z" fill="black"/>
<path fill-rule="evenodd" clip-rule="evenodd" d="M227.567 141.308C227.763 142.315 227.324 143.134 226.844 143.939C226.348 144.773 225.84 145.599 225.358 146.441C225.226 146.671 225.145 146.939 225.082 147.2C224.98 147.627 225.064 147.868 225.524 148.159C226.378 148.697 227.097 149.454 227.872 150.121C227.823 150.183 227.774 150.244 227.725 150.306C227.642 150.246 227.554 150.191 227.477 150.125C226.627 149.389 225.716 149.091 224.546 149.292C223.628 149.45 222.649 149.281 221.701 149.201C219.424 149.011 217.639 149.866 216.3 151.743C216.179 151.086 216.582 150.063 217.201 149.271C218.339 147.814 219.93 147.019 221.52 146.223C223.085 145.439 224.701 144.746 226.214 143.872C226.997 143.42 227.261 142.463 227.521 141.599C227.55 141.506 227.553 141.406 227.567 141.308Z" fill="black"/>
<path fill-rule="evenodd" clip-rule="evenodd" d="M214.061 160.653C213.605 159.834 213.096 159.04 212.703 158.191C211.941 156.55 211.397 154.817 211.641 152.993C211.916 150.936 212.284 148.881 213.513 147.112C214.541 145.631 215.981 144.682 217.519 143.848C219.752 142.637 221.984 141.425 224.217 140.215C224.374 140.13 224.534 140.052 224.762 140.09C223.712 140.88 222.686 141.706 221.604 142.452C219.785 143.707 217.914 144.887 216.095 146.143C214.416 147.302 213.475 148.966 212.985 150.936C212.163 154.235 212.897 157.327 214.132 160.364C214.161 160.433 214.18 160.507 214.203 160.579C214.156 160.603 214.109 160.628 214.061 160.653Z" fill="black"/>
<path fill-rule="evenodd" clip-rule="evenodd" d="M214.13 128.905C216.518 128.611 218.923 128.53 221.262 129.347C222.319 129.716 223.219 130.348 223.896 131.238C224.161 131.586 224.247 132.076 224.379 132.511C224.387 132.536 224.01 132.771 223.923 132.719C221.899 131.516 219.764 131.759 217.612 132.187C217.034 132.302 216.459 132.436 215.797 132.43C216.249 132.065 216.702 131.702 217.15 131.333C217.788 130.804 217.814 129.962 217.092 129.597C216.431 129.262 215.657 129.148 214.926 128.964C214.672 128.902 214.396 128.923 214.13 128.905Z" fill="black"/>
<path fill-rule="evenodd" clip-rule="evenodd" d="M193.198 158.678C193.304 157.903 193.688 157.28 194.31 156.906C195.014 156.482 195.513 155.995 195.796 155.184C195.959 154.717 196.464 154.376 196.804 153.968C197.436 153.208 198.058 152.442 198.786 151.716C198.506 152.369 198.211 153.016 197.954 153.678C197.817 154.031 197.687 154.406 197.664 154.778C197.638 155.209 198.1 155.592 198.493 155.483C199.258 155.271 200.008 155.006 200.803 154.751C200.031 155.821 199.152 156.752 197.81 157.116C197.673 157.154 197.53 157.176 197.396 157.222C196.02 157.697 194.646 158.176 193.198 158.678Z" fill="black"/>
<path fill-rule="evenodd" clip-rule="evenodd" d="M223.263 116.625C223.066 117.255 222.803 117.873 222.69 118.518C222.568 119.218 222.489 119.953 222.559 120.657C222.698 122.04 223.279 123.245 224.352 124.158C224.666 124.425 225.043 124.615 225.369 124.935C224.815 124.84 224.262 124.718 223.703 124.658C222.739 124.555 221.769 124.504 220.803 124.405C219.96 124.318 219.949 124.285 220.153 123.458C220.762 120.994 221.87 118.755 223.263 116.625Z" fill="black"/>
<path fill-rule="evenodd" clip-rule="evenodd" d="M208.641 146.92C208.555 147.556 208.427 148.19 208.39 148.828C208.261 151.056 208.704 153.16 209.739 155.146C209.992 155.634 210.107 156.203 210.226 156.749C210.265 156.931 210.17 157.271 210.042 157.33C209.858 157.415 209.505 157.396 209.369 157.266C208.971 156.886 208.499 156.486 208.315 155.994C207.217 153.071 207.07 150.123 208.314 147.188C208.359 147.081 208.449 146.994 208.518 146.897C208.559 146.905 208.6 146.913 208.641 146.92Z" fill="black"/>
<path fill-rule="evenodd" clip-rule="evenodd" d="M228.893 109.512C228.395 109.959 227.898 110.404 227.401 110.851C227.37 110.879 227.34 110.907 227.313 110.939C226.853 111.5 226.297 112.046 227.099 112.79C226.866 112.925 226.719 113.011 226.609 113.074C225.648 111.911 225.216 110.622 225.573 109.131C225.799 108.187 226.249 107.374 226.977 106.698C226.809 107.4 226.139 108.037 226.872 108.8C227.445 109.397 228.066 109.641 228.896 109.315C228.895 109.381 228.894 109.447 228.893 109.512Z" fill="black"/>
<path fill-rule="evenodd" clip-rule="evenodd" d="M201.373 140.056C201.629 140.205 201.857 140.342 202.088 140.472C203.537 141.283 204.82 142.311 205.966 143.513C206.094 143.647 206.107 143.891 206.172 144.084C205.931 144.113 205.615 144.255 205.463 144.151C204.665 143.609 203.894 143.023 203.144 142.415C202.488 141.881 201.864 141.308 201.246 140.728C201.138 140.626 201.104 140.414 201.095 140.25C201.092 140.192 201.27 140.125 201.373 140.056Z" fill="black"/>
<path fill-rule="evenodd" clip-rule="evenodd" d="M210.815 127.89C214.686 126.383 222.55 127.467 224.353 129.68C222.179 129.029 220.007 128.216 217.764 127.753C215.473 127.279 213.119 127.427 210.815 127.89Z" fill="black"/>
<path fill-rule="evenodd" clip-rule="evenodd" d="M228.185 116.429C226.816 116.374 224.985 114.926 224.713 113.841C224.688 113.744 224.729 113.555 224.788 113.531C224.893 113.49 225.106 113.494 225.15 113.561C225.75 114.486 226.732 114.687 227.681 114.957C227.896 115.018 228.106 115.111 228.305 115.216C228.592 115.369 228.989 115.539 228.786 115.936C228.654 116.195 228.301 116.34 228.185 116.429Z" fill="black"/>
<path fill-rule="evenodd" clip-rule="evenodd" d="M212.85 162.491C212.026 161.674 211.191 160.867 210.384 160.034C210.104 159.745 209.97 159.352 210.365 159.057C210.776 158.75 211.101 158.96 211.321 159.365C211.714 160.094 212.098 160.828 212.496 161.555C212.648 161.832 212.826 162.094 212.992 162.364C212.945 162.406 212.897 162.448 212.85 162.491Z" fill="black"/>
<path fill-rule="evenodd" clip-rule="evenodd" d="M201.085 146.557C201.033 146.884 201.054 147.102 200.961 147.244C200.835 147.436 200.626 147.687 200.444 147.693C200.261 147.7 199.954 147.473 199.902 147.29C199.773 146.839 199.72 146.355 199.72 145.884C199.72 145.71 199.935 145.413 200.082 145.391C200.278 145.363 200.585 145.495 200.698 145.66C200.9 145.954 200.991 146.324 201.085 146.557ZM200.342 145.625C200.276 145.645 200.21 145.664 200.144 145.683C199.856 146.303 199.92 146.472 200.657 146.687C200.536 146.279 200.439 145.952 200.342 145.625Z" fill="black"/>
<path fill-rule="evenodd" clip-rule="evenodd" d="M231.511 106.123C231.516 106.613 231.192 106.968 230.731 106.975C230.233 106.984 229.622 106.394 229.642 105.907C229.668 105.325 230.136 105.293 230.53 105.271C231.151 105.235 231.504 105.577 231.511 106.123ZM231.036 106.106C230.701 105.876 230.505 105.718 230.285 105.613C230.248 105.595 230.009 105.867 230.027 105.895C230.142 106.068 230.281 106.258 230.459 106.343C230.553 106.389 230.741 106.235 231.036 106.106Z" fill="black"/>
<path fill-rule="evenodd" clip-rule="evenodd" d="M220.081 135.505C220.134 135.012 220.569 134.95 221.018 134.955C221.642 134.962 221.973 135.299 221.952 135.862C221.936 136.327 221.556 136.695 221.114 136.677C220.638 136.657 220.067 136.067 220.081 135.505ZM221.501 135.735C221.131 135.539 220.923 135.406 220.696 135.331C220.653 135.317 220.445 135.611 220.465 135.636C220.6 135.8 220.757 135.976 220.946 136.05C221.037 136.085 221.21 135.908 221.501 135.735Z" fill="black"/>
<path fill-rule="evenodd" clip-rule="evenodd" d="M202.293 161.007C201.784 160.991 201.238 160.56 201.297 160.192C201.352 159.854 201.494 159.522 201.959 159.551C202.554 159.587 203.107 159.977 203.097 160.404C203.084 160.975 202.618 160.928 202.293 161.007Z" fill="black"/>
<path fill-rule="evenodd" clip-rule="evenodd" d="M225.659 126.991C224.721 126.893 223.845 126.802 222.968 126.71C222.997 126.087 223.422 125.902 224.64 126.024C225.409 126.099 225.747 126.446 225.659 126.991Z" fill="black"/>
<path fill-rule="evenodd" clip-rule="evenodd" d="M225.221 150.615C225.936 150.604 226.34 150.925 226.354 151.439C226.366 151.88 225.981 152.292 225.545 152.305C225.074 152.319 224.465 151.764 224.46 151.284C224.453 150.703 224.883 150.651 225.221 150.615ZM225.119 150.715C224.959 151.015 224.803 151.198 224.84 151.258C224.953 151.438 225.126 151.6 225.311 151.703C225.359 151.729 225.658 151.443 225.641 151.413C225.522 151.198 225.351 151.01 225.119 150.715Z" fill="black"/>
<path fill-rule="evenodd" clip-rule="evenodd" d="M224.206 117.857C224.895 117.862 225.253 118.166 225.247 118.708C225.242 119.169 224.858 119.548 224.413 119.531C223.913 119.513 223.315 118.955 223.345 118.486C223.382 117.926 223.816 117.877 224.206 117.857ZM224.2 119.129C224.374 118.857 224.554 118.653 224.522 118.611C224.385 118.43 224.188 118.296 224.012 118.145C223.912 118.268 223.706 118.428 223.733 118.505C223.8 118.693 223.974 118.844 224.2 119.129Z" fill="black"/>
<path fill-rule="evenodd" clip-rule="evenodd" d="M215.711 168.094C216.303 168.086 216.735 168.43 216.743 168.918C216.751 169.377 216.397 169.743 215.936 169.75C215.384 169.758 214.888 169.304 214.861 168.765C214.841 168.349 215.154 168.102 215.711 168.094ZM216.069 169.054C216.086 168.942 216.103 168.83 216.12 168.719C215.826 168.639 215.532 168.559 215.239 168.479C215.256 168.671 215.235 169.01 215.299 169.027C215.541 169.093 215.81 169.054 216.069 169.054Z" fill="black"/>
<path fill-rule="evenodd" clip-rule="evenodd" d="M214.188 141.961C213.9 141.676 213.625 141.528 213.626 141.382C213.63 140.969 213.892 140.669 214.327 140.72C214.508 140.74 214.828 141.058 214.806 141.102C214.674 141.372 214.462 141.602 214.188 141.961Z" fill="black"/>
<path fill-rule="evenodd" clip-rule="evenodd" d="M203.594 155.886C203.324 155.597 203.183 155.445 203.041 155.293C203.297 155.07 203.537 154.821 203.823 154.65C203.871 154.622 204.275 155.014 204.246 155.073C204.111 155.335 203.88 155.548 203.594 155.886Z" fill="black"/>
<path fill-rule="evenodd" clip-rule="evenodd" d="M204.202 145.362C204.433 145.72 204.684 145.951 204.641 146.079C204.564 146.307 204.307 146.472 204.126 146.664C203.968 146.488 203.68 146.308 203.685 146.138C203.691 145.928 203.943 145.727 204.202 145.362Z" fill="black"/>
<path fill-rule="evenodd" clip-rule="evenodd" d="M201.866 152.906C202.553 153.009 203.129 153.097 203.819 153.201C203.698 153.336 203.594 153.563 203.443 153.6C202.836 153.748 202.311 153.589 201.866 152.906Z" fill="black"/>
<path fill-rule="evenodd" clip-rule="evenodd" d="M195.812 139.991C196.246 140.314 196.696 140.649 197.12 140.965C196.496 141.252 195.815 140.734 195.812 139.991Z" fill="black"/>
<path fill-rule="evenodd" clip-rule="evenodd" d="M196.697 138.757C196.774 139.353 196.829 139.777 196.901 140.329C196.715 140.157 196.432 140.014 196.434 139.877C196.441 139.543 196.58 139.211 196.697 138.757Z" fill="black"/>
<path fill-rule="evenodd" clip-rule="evenodd" d="M213.017 112.256C213.999 114.3 214.469 116.464 214.276 118.715C214.169 119.967 213.819 121.201 213.544 122.435C213.433 122.934 213.13 123.043 212.574 122.994C211.926 122.936 211.243 123.138 210.591 123.295C209.896 123.462 210.004 123.404 209.78 122.728C209.621 122.249 208.982 121.927 208.543 121.551C208.387 121.417 208.19 121.33 208.013 121.221C208.161 121.101 208.299 120.962 208.46 120.865C209.185 120.428 209.944 120.045 210.641 119.567C211.768 118.794 212.155 117.535 212.595 116.325C213.074 115.01 213.266 113.664 213.017 112.256Z" fill="black"/>
<path fill-rule="evenodd" clip-rule="evenodd" d="M214.066 98.1504C214.385 99.6299 214.615 101.118 214.018 102.592C213.567 103.707 213.059 104.797 212.577 105.899C212.411 106.279 212.18 106.574 211.726 106.342C211.309 106.13 211.077 105.779 211.345 105.317C211.729 104.654 212.142 104.006 212.573 103.373C213.572 101.909 213.96 100.282 213.913 98.5276C213.91 98.4059 213.913 98.2831 213.913 98.1608C213.963 98.1577 214.014 98.154 214.066 98.1504Z" fill="black"/>
<path fill-rule="evenodd" clip-rule="evenodd" d="M208.697 107.702C208.891 107.746 209.085 107.791 209.279 107.832C210.323 108.05 211.371 108.251 212.409 108.495C212.623 108.546 212.8 108.752 212.995 108.886C212.802 109.003 212.618 109.196 212.414 109.222C211.256 109.368 210.31 108.763 209.337 108.271C209.103 108.152 208.89 107.995 208.667 107.855C208.677 107.804 208.687 107.753 208.697 107.702Z" fill="black"/>
<path fill-rule="evenodd" clip-rule="evenodd" d="M212.893 98.4581C212.368 98.456 211.882 97.9905 211.875 97.4921C211.868 96.977 212.186 96.7952 212.624 96.7774C213.247 96.7513 213.721 97.1222 213.732 97.6091C213.744 98.1415 213.428 98.4602 212.893 98.4581ZM212.14 97.2466C212.182 97.7455 212.438 97.9294 212.854 97.8249C212.939 97.8035 213.059 97.525 213.016 97.4555C212.815 97.1254 212.534 96.9618 212.14 97.2466Z" fill="black"/>
<path fill-rule="evenodd" clip-rule="evenodd" d="M210.183 118.764C209.599 118.78 209.065 118.295 209.09 117.738C209.112 117.256 209.455 117.146 209.861 117.132C210.528 117.11 210.956 117.406 210.987 117.919C211.012 118.345 210.624 118.753 210.183 118.764ZM210.458 117.931C210.103 117.681 209.913 117.518 209.693 117.418C209.646 117.397 209.496 117.603 209.393 117.705C209.544 117.855 209.674 118.049 209.855 118.137C209.951 118.185 210.136 118.048 210.458 117.931Z" fill="black"/>
<path fill-rule="evenodd" clip-rule="evenodd" d="M209.345 111.643C209.465 113.099 209.573 114.403 209.684 115.746C208.963 115.535 208.776 113.056 209.345 111.643Z" fill="black"/>
<path fill-rule="evenodd" clip-rule="evenodd" d="M206.959 136.105C206.74 135.928 206.615 135.828 206.444 135.69C207.296 135.04 208.12 134.411 209.062 133.694C209.336 133.777 209.794 133.914 210.299 134.066C209.084 134.652 207.724 134.833 206.959 136.105Z" fill="white"/>
<path fill-rule="evenodd" clip-rule="evenodd" d="M200.342 145.625C200.439 145.952 200.536 146.279 200.657 146.687C199.92 146.472 199.856 146.303 200.144 145.683C200.21 145.664 200.276 145.645 200.342 145.625Z" fill="white"/>
<path fill-rule="evenodd" clip-rule="evenodd" d="M197.579 116.188C197.263 116.368 197.094 116.537 197.004 116.501C196.81 116.424 196.649 116.25 196.5 116.09C196.487 116.077 196.692 115.777 196.745 115.792C196.974 115.857 197.184 115.99 197.579 116.188Z" fill="white"/>
<path fill-rule="evenodd" clip-rule="evenodd" d="M242.906 97.5432C243.139 97.7945 243.292 97.9606 243.446 98.1262C243.325 98.2307 243.14 98.447 243.096 98.4209C242.914 98.3133 242.754 98.1471 242.638 97.9674C242.609 97.9225 242.77 97.7511 242.906 97.5432Z" fill="white"/>
<path fill-rule="evenodd" clip-rule="evenodd" d="M231.036 106.106C230.741 106.235 230.552 106.389 230.459 106.343C230.281 106.258 230.142 106.068 230.027 105.895C230.009 105.867 230.248 105.595 230.285 105.612C230.505 105.718 230.701 105.875 231.036 106.106Z" fill="white"/>
<path fill-rule="evenodd" clip-rule="evenodd" d="M221.501 135.735C221.209 135.908 221.037 136.086 220.946 136.05C220.758 135.976 220.6 135.8 220.465 135.636C220.445 135.611 220.653 135.317 220.696 135.331C220.923 135.406 221.131 135.54 221.501 135.735Z" fill="white"/>
<path fill-rule="evenodd" clip-rule="evenodd" d="M221.599 190.887C221.457 190.942 221.277 191.081 221.181 191.036C220.998 190.949 220.861 190.759 220.705 190.612C220.804 190.515 220.94 190.319 220.998 190.34C221.219 190.42 221.416 190.569 221.622 190.693C221.615 190.758 221.607 190.822 221.599 190.887Z" fill="white"/>
<path fill-rule="evenodd" clip-rule="evenodd" d="M225.119 150.715C225.351 151.009 225.522 151.198 225.641 151.413C225.658 151.443 225.359 151.729 225.311 151.703C225.126 151.601 224.953 151.438 224.84 151.258C224.803 151.198 224.959 151.015 225.119 150.715Z" fill="white"/>
<path fill-rule="evenodd" clip-rule="evenodd" d="M234.238 144.657C234.09 144.391 233.96 144.22 233.91 144.029C233.896 143.975 234.185 143.764 234.22 143.789C234.416 143.93 234.576 144.121 234.748 144.294C234.62 144.384 234.492 144.476 234.238 144.657Z" fill="white"/>
<path fill-rule="evenodd" clip-rule="evenodd" d="M204.363 201.79C204.632 202.034 204.819 202.203 205.006 202.373C204.88 202.475 204.706 202.688 204.639 202.658C204.455 202.577 204.284 202.412 204.175 202.238C204.134 202.173 204.274 201.991 204.363 201.79Z" fill="white"/>
<path fill-rule="evenodd" clip-rule="evenodd" d="M205.849 178.066C206.193 178.26 206.46 178.41 206.725 178.56C206.611 178.682 206.507 178.898 206.382 178.91C205.998 178.948 205.756 178.765 205.849 178.066Z" fill="white"/>
<path fill-rule="evenodd" clip-rule="evenodd" d="M224.2 119.129C223.974 118.843 223.8 118.693 223.733 118.505C223.706 118.428 223.912 118.268 224.012 118.145C224.188 118.296 224.386 118.429 224.522 118.611C224.554 118.653 224.374 118.857 224.2 119.129Z" fill="white"/>
<path fill-rule="evenodd" clip-rule="evenodd" d="M217.792 191.457C218.104 191.683 218.344 191.858 218.586 192.033C218.461 192.136 218.342 192.319 218.211 192.327C217.796 192.356 217.617 192.131 217.792 191.457Z" fill="white"/>
<path fill-rule="evenodd" clip-rule="evenodd" d="M216.069 169.054C215.81 169.054 215.541 169.093 215.299 169.028C215.235 169.01 215.256 168.671 215.239 168.479C215.532 168.559 215.826 168.639 216.12 168.719C216.103 168.831 216.086 168.942 216.069 169.054Z" fill="white"/>
<path fill-rule="evenodd" clip-rule="evenodd" d="M222.815 207.234C223.064 207.54 223.22 207.73 223.375 207.921C223.252 208.001 223.08 208.177 223.014 208.143C222.833 208.05 222.672 207.886 222.558 207.712C222.524 207.661 222.674 207.486 222.815 207.234Z" fill="white"/>
<path fill-rule="evenodd" clip-rule="evenodd" d="M212.14 97.2466C212.534 96.9618 212.815 97.1259 213.016 97.4556C213.058 97.5251 212.939 97.8035 212.854 97.8249C212.438 97.9289 212.182 97.7455 212.14 97.2466Z" fill="white"/>
<path fill-rule="evenodd" clip-rule="evenodd" d="M210.458 117.931C210.136 118.049 209.951 118.184 209.855 118.137C209.674 118.049 209.544 117.855 209.393 117.705C209.496 117.604 209.646 117.397 209.693 117.418C209.913 117.517 210.103 117.681 210.458 117.931Z" fill="white"/>
<path fill-rule="evenodd" clip-rule="evenodd" d="M248.059 104.901C248.345 105.58 248.377 106.403 248.062 107.224C246.231 112.005 244.393 116.783 242.556 121.561C239.308 130.005 236.06 138.449 232.812 146.892C229.564 155.335 226.314 163.779 223.065 172.222C222.759 173.018 222.456 173.815 222.151 174.612C221.472 176.381 219.658 177.208 217.898 176.522C213.036 174.627 208.179 172.717 203.32 170.815C198.539 168.945 193.769 167.047 188.971 165.221C187.039 164.486 186.439 163.01 186.53 161.803C186.559 161.418 186.66 161.025 186.799 160.664C191.326 148.869 195.862 137.076 200.397 125.283C204.461 114.717 208.525 104.151 212.589 93.5858C213.322 91.6773 215.063 90.8586 216.958 91.5926C221.41 93.3178 225.852 95.0648 230.296 96.8087C232.235 97.571 234.164 98.3619 236.105 99.119C239.386 100.399 242.67 101.672 245.959 102.932C246.881 103.286 247.597 103.843 248.059 104.901ZM221.45 162.457C222.005 162.227 222.376 161.754 222.609 161.144C224.627 155.887 226.649 150.629 228.67 145.372C232.491 135.44 236.313 125.508 240.134 115.576C240.684 114.143 240.178 112.987 238.767 112.436C235.921 111.325 233.078 110.212 230.233 109.099C225.447 107.226 220.661 105.351 215.874 103.479C214.56 102.965 213.393 103.49 212.879 104.824C210.666 110.573 208.454 116.323 206.242 122.072C203.506 129.187 200.77 136.301 198.033 143.415C197.119 145.791 196.198 148.164 195.298 150.545C194.834 151.771 195.372 152.978 196.555 153.442C204.247 156.457 211.939 159.47 219.631 162.484C220.219 162.713 220.806 162.747 221.45 162.457ZM203.607 161.621C202.117 162.289 201.442 164.04 202.095 165.538C202.756 167.051 204.523 167.741 206.01 167.066C207.492 166.392 208.149 164.644 207.487 163.134C206.827 161.626 205.099 160.953 203.607 161.621Z" fill="#35477D"/>
<path fill-rule="evenodd" clip-rule="evenodd" d="M221.45 162.457C220.806 162.747 220.218 162.713 219.63 162.483C211.938 159.47 204.246 156.457 196.554 153.441C195.372 152.977 194.834 151.77 195.297 150.544C196.197 148.164 197.119 145.791 198.033 143.415C200.769 136.301 203.504 129.187 206.241 122.072C208.453 116.322 210.666 110.573 212.879 104.823C213.393 103.489 214.559 102.964 215.874 103.478C220.66 105.35 225.446 107.225 230.232 109.098C233.077 110.212 235.921 111.325 238.767 112.436C240.178 112.987 240.684 114.142 240.133 115.575C236.312 125.508 232.49 135.439 228.67 145.371C226.649 150.629 224.626 155.886 222.608 161.144C222.376 161.754 222.005 162.227 221.45 162.457Z" fill="white"/>
<path fill-rule="evenodd" clip-rule="evenodd" d="M203.607 161.621C205.099 160.953 206.827 161.626 207.487 163.134C208.149 164.644 207.492 166.392 206.009 167.066C204.523 167.741 202.756 167.051 202.095 165.538C201.442 164.04 202.117 162.29 203.607 161.621Z" fill="#35477D"/>
<path d="M216.499 142.656C216.705 142.935 216.885 143.262 217.04 143.635C217.195 144.008 217.296 144.392 217.345 144.786C217.393 145.18 217.387 145.578 217.326 145.979C217.266 146.381 217.132 146.755 216.922 147.102C216.736 147.278 216.59 147.383 216.486 147.418C216.383 147.451 216.28 147.493 216.179 147.541C216.115 147.567 216.058 147.592 216.007 147.616C215.956 147.64 215.912 147.663 215.876 147.684L215.563 147.891L215.318 147.584C215.212 147.465 215.108 147.406 215.005 147.405C214.901 147.405 214.737 147.434 214.514 147.491C214.435 147.507 214.354 147.523 214.275 147.538C214.195 147.554 214.121 147.562 214.052 147.561L213.326 147.662L213.593 146.899C213.75 146.424 213.786 146.058 213.703 145.803C213.619 145.548 213.36 145.296 212.926 145.047C212.648 145.324 212.461 145.587 212.364 145.836C212.267 146.085 212.175 146.343 212.089 146.61C211.975 146.952 211.848 147.291 211.705 147.625C211.563 147.959 211.373 148.302 211.138 148.654C211.052 148.782 210.969 148.901 210.885 149.007C210.802 149.114 210.71 149.226 210.609 149.344L210.401 149.551C210.204 149.464 210.084 149.429 210.039 149.444C209.993 149.461 209.944 149.474 209.891 149.484C209.758 149.51 209.595 149.521 209.402 149.517C209.207 149.514 209.024 149.418 208.849 149.229C208.653 149.212 208.478 149.163 208.324 149.081C208.45 149.307 208.601 149.514 208.775 149.702L208.949 149.961L208.836 150.233C208.83 150.276 208.85 150.325 208.895 150.378C208.94 150.431 208.977 150.469 209.01 150.491L209.334 150.887C209.345 150.941 209.351 150.991 209.353 151.039C209.356 151.088 209.362 151.139 209.373 151.192C209.494 151.322 209.61 151.459 209.721 151.604C209.832 151.749 209.935 151.889 210.03 152.024C210.183 152.245 210.339 152.45 210.5 152.641C210.662 152.833 210.842 152.985 211.044 153.098L211.242 153.373C211.284 153.517 211.3 153.657 211.292 153.791C211.283 153.925 211.271 154.056 211.254 154.184C211.264 154.239 211.263 154.302 211.248 154.373C211.235 154.446 211.226 154.503 211.219 154.545L211.433 154.796L211.289 155.117C211.202 155.315 211.143 155.455 211.111 155.538C211.079 155.62 211.03 155.71 210.966 155.806L210.782 156.031C210.521 156.109 210.316 156.168 210.164 156.204C210.013 156.241 209.854 156.297 209.689 156.37C209.402 156.384 209.205 156.367 209.1 156.319C208.994 156.27 208.896 156.226 208.806 156.189C208.689 156.156 208.597 156.122 208.527 156.087C208.459 156.052 208.397 156.039 208.344 156.05L207.851 156.168L207.812 155.758L207.424 155.459C206.828 154.587 206.278 153.718 205.772 152.85C205.266 151.982 204.754 151.091 204.232 150.177C204.064 149.876 203.893 149.579 203.719 149.287C203.545 148.994 203.374 148.697 203.206 148.395C203.148 148.379 203.087 148.349 203.022 148.306C202.96 148.263 202.899 148.199 202.841 148.112C202.689 147.753 202.542 147.444 202.403 147.186C202.263 146.928 202.12 146.668 201.973 146.404C201.789 146.092 201.615 145.782 201.452 145.473C201.289 145.165 201.142 144.813 201.011 144.422L201.101 143.924C201.118 143.865 201.135 143.795 201.154 143.715C201.173 143.635 201.209 143.554 201.263 143.474L201.552 143.147C201.646 142.558 201.618 141.968 201.469 141.378C201.322 140.787 201.103 140.138 200.814 139.429L200.642 138.962L201.04 138.779C201.142 138.732 201.261 138.649 201.397 138.532C201.533 138.415 201.678 138.292 201.833 138.164C202.089 137.919 202.342 137.696 202.593 137.493C202.844 137.291 203.102 137.164 203.368 137.112C203.687 137.188 203.915 137.263 204.052 137.333C204.19 137.403 204.333 137.466 204.481 137.52C204.784 137.655 205.082 137.794 205.379 137.938C205.675 138.082 205.997 138.259 206.34 138.47C206.664 138.574 206.975 138.687 207.275 138.808C207.575 138.931 207.875 139.059 208.177 139.195C208.612 139.374 209.034 139.545 209.445 139.708C209.856 139.871 210.263 139.997 210.666 140.084C210.751 139.956 210.813 139.882 210.85 139.86C210.872 139.758 210.904 139.658 210.947 139.559C210.99 139.46 211.042 139.349 211.101 139.226L211.254 138.945L211.556 139.011C211.646 139.05 211.779 139.023 211.955 138.933C212.11 138.736 212.256 138.614 212.391 138.566C212.527 138.519 212.661 138.482 212.794 138.456C212.9 138.435 212.991 138.403 213.065 138.36L213.449 138.097L213.678 138.533C213.856 138.887 213.978 139.302 214.041 139.777C214.106 140.251 214.101 140.732 214.03 141.219C214.136 141.269 214.235 141.318 214.328 141.369C214.42 141.421 214.525 141.464 214.642 141.496C214.943 141.631 215.248 141.781 215.556 141.943C215.863 142.105 216.157 142.305 216.437 142.541L216.499 142.656ZM207.737 146.796C208.028 146.294 208.282 145.833 208.505 145.414C208.728 144.994 208.952 144.511 209.178 143.966C208.627 143.754 208.05 143.537 207.449 143.314C206.847 143.091 206.244 142.879 205.64 142.677L205.781 142.983C205.9 143.531 206.067 144.092 206.282 144.67C206.497 145.248 206.717 145.765 206.943 146.221C207.021 146.414 207.1 146.608 207.179 146.801C207.258 146.994 207.342 147.18 207.431 147.357C207.48 147.25 207.533 147.152 207.592 147.064C207.651 146.976 207.699 146.888 207.737 146.796Z" fill="#35477D"/>
<path d="M210.848 123.327C211.377 122.708 211.914 122.2 212.457 121.8C213 121.401 213.555 121.126 214.118 120.973C214.687 120.987 215.279 121.035 215.894 121.115C216.51 121.196 217.108 121.346 217.689 121.566C218.269 121.787 218.819 122.079 219.338 122.444C219.856 122.808 220.311 123.286 220.701 123.878C220.962 124.731 221.049 125.611 220.962 126.52C220.875 127.427 220.686 128.341 220.394 129.261C220.103 130.181 219.76 131.108 219.368 132.041C218.976 132.974 218.596 133.887 218.23 134.779C218.607 135.012 218.994 135.27 219.394 135.553C219.793 135.836 220.171 136.152 220.528 136.499C220.884 136.847 221.206 137.223 221.489 137.626C221.774 138.029 221.996 138.46 222.152 138.916C221.97 139.188 221.818 139.492 221.697 139.829C221.575 140.167 221.464 140.464 221.362 140.72C221.223 140.789 221.096 140.848 220.982 140.899C220.868 140.949 220.749 141.049 220.626 141.198C220.488 141.058 220.299 140.988 220.057 140.986C219.816 140.985 219.571 140.981 219.321 140.975C219.071 140.968 218.853 140.931 218.668 140.862C218.482 140.794 218.382 140.616 218.368 140.326C218.182 140.363 218.002 140.322 217.826 140.203C217.71 139.962 217.515 139.683 217.241 139.368C216.967 139.053 216.685 138.757 216.397 138.479C216.109 138.203 215.82 137.988 215.528 137.836C215.237 137.685 214.932 137.71 214.611 137.912C214.59 137.874 214.595 137.832 214.628 137.784C214.66 137.735 214.684 137.682 214.7 137.623C214.519 137.686 214.333 137.671 214.143 137.576C213.952 137.48 213.761 137.438 213.57 137.448C213.513 137.362 213.457 137.289 213.404 137.23C213.351 137.171 213.365 137.099 213.445 137.013C213.127 136.867 212.86 136.68 212.644 136.451C212.427 136.222 212.241 135.973 212.085 135.704C211.93 135.436 211.795 135.145 211.679 134.834C211.564 134.522 211.444 134.219 211.318 133.924C211.377 133.801 211.438 133.743 211.503 133.752C211.565 133.761 211.593 133.703 211.582 133.58C211.563 133.264 211.492 133.006 211.372 132.807C211.25 132.608 211.079 132.433 210.856 132.282C210.598 131.944 210.351 131.577 210.117 131.185C209.883 130.792 209.687 130.402 209.529 130.016C209.372 129.63 209.26 129.244 209.193 128.861C209.126 128.478 209.122 128.12 209.183 127.788C209.152 127.488 209.166 127.147 209.223 126.767C209.282 126.387 209.387 126.005 209.54 125.62C209.694 125.234 209.881 124.868 210.104 124.518C210.327 124.168 210.573 123.876 210.845 123.642C210.931 123.583 210.944 123.528 210.886 123.477C210.829 123.425 210.815 123.375 210.848 123.327ZM215.881 128.184C215.975 127.665 216.122 127.142 216.324 126.615C216.526 126.088 216.585 125.576 216.503 125.077C216.2 125.151 215.858 125.326 215.477 125.602C215.096 125.879 214.745 126.223 214.423 126.634C214.103 127.045 213.847 127.505 213.655 128.016C213.464 128.526 213.405 129.039 213.476 129.553C213.698 129.844 213.871 130.079 213.994 130.256C214.118 130.433 214.262 130.659 214.425 130.934C214.526 130.956 214.621 130.944 214.708 130.899C214.796 130.854 214.891 130.843 214.992 130.864C215.047 130.366 215.189 129.921 215.416 129.528C215.644 129.136 215.8 128.688 215.881 128.184Z" fill="#35477D"/>
<path d="M219.472 110.424C220.001 109.805 220.538 109.296 221.081 108.897C221.625 108.498 222.179 108.223 222.743 108.07C223.311 108.084 223.903 108.131 224.519 108.212C225.134 108.293 225.733 108.443 226.313 108.663C226.894 108.884 227.444 109.176 227.962 109.54C228.48 109.905 228.936 110.383 229.326 110.974C229.586 111.828 229.673 112.708 229.587 113.616C229.499 114.524 229.31 115.438 229.018 116.358C228.727 117.278 228.384 118.204 227.992 119.138C227.599 120.071 227.22 120.984 226.855 121.876C227.231 122.109 227.618 122.366 228.018 122.65C228.417 122.933 228.795 123.249 229.152 123.596C229.508 123.943 229.829 124.32 230.113 124.722C230.399 125.125 230.62 125.556 230.776 126.012C230.594 126.285 230.443 126.589 230.321 126.926C230.2 127.264 230.088 127.56 229.986 127.816C229.847 127.885 229.72 127.945 229.607 127.996C229.492 128.046 229.373 128.145 229.25 128.295C229.113 128.155 228.923 128.084 228.681 128.083C228.44 128.082 228.195 128.078 227.945 128.071C227.695 128.064 227.478 128.027 227.292 127.959C227.106 127.891 227.007 127.712 226.992 127.423C226.806 127.459 226.626 127.419 226.45 127.3C226.335 127.058 226.14 126.78 225.865 126.465C225.591 126.15 225.309 125.854 225.021 125.576C224.734 125.299 224.444 125.084 224.152 124.933C223.861 124.781 223.556 124.807 223.236 125.009C223.215 124.971 223.22 124.928 223.252 124.88C223.284 124.832 223.308 124.779 223.324 124.719C223.144 124.783 222.958 124.767 222.767 124.672C222.577 124.577 222.385 124.535 222.194 124.545C222.137 124.459 222.081 124.386 222.029 124.327C221.975 124.268 221.99 124.195 222.07 124.11C221.751 123.964 221.484 123.776 221.268 123.547C221.051 123.319 220.865 123.07 220.71 122.8C220.554 122.532 220.419 122.242 220.304 121.93C220.189 121.619 220.068 121.316 219.943 121.02C220.001 120.898 220.063 120.84 220.126 120.849C220.19 120.857 220.217 120.8 220.207 120.677C220.188 120.361 220.117 120.102 219.996 119.904C219.875 119.705 219.703 119.53 219.481 119.378C219.222 119.04 218.976 118.674 218.741 118.281C218.507 117.889 218.311 117.499 218.154 117.113C217.996 116.726 217.884 116.341 217.817 115.957C217.75 115.574 217.747 115.217 217.807 114.884C217.777 114.584 217.79 114.244 217.848 113.864C217.906 113.484 218.011 113.101 218.165 112.717C218.317 112.331 218.505 111.964 218.728 111.614C218.951 111.265 219.197 110.972 219.47 110.738C219.555 110.68 219.568 110.625 219.511 110.574C219.453 110.522 219.44 110.472 219.472 110.424ZM224.506 115.281C224.599 114.763 224.746 114.239 224.948 113.712C225.15 113.185 225.21 112.673 225.128 112.174C224.825 112.248 224.482 112.423 224.102 112.699C223.72 112.976 223.369 113.32 223.048 113.731C222.728 114.142 222.471 114.603 222.28 115.113C222.089 115.624 222.03 116.137 222.101 116.651C222.323 116.942 222.495 117.176 222.619 117.353C222.743 117.53 222.887 117.756 223.05 118.03C223.151 118.053 223.246 118.041 223.333 117.996C223.421 117.951 223.515 117.94 223.616 117.961C223.671 117.464 223.814 117.018 224.041 116.626C224.269 116.233 224.424 115.784 224.506 115.281Z" fill="#35477D"/>
</svg>
